<!DOCTYPE svg PUBLIC "-//W3C//DTD SVG 1.1//EN" "http://www.w3.org/Graphics/SVG/1.1/DTD/svg11.dtd">
<!-- Uploaded to: SVG Repo, www.svgrepo.com, Transformed by: SVG Repo Mixer Tools -->
<svg width="800px" height="800px" viewBox="0 0 512 512" version="1.1" xml:space="preserve" xmlns="http://www.w3.org/2000/svg" xmlns:xlink="http://www.w3.org/1999/xlink" fill="#000000">
<g id="SVGRepo_bgCarrier" stroke-width="0"/>
<g id="SVGRepo_tracerCarrier" stroke-linecap="round" stroke-linejoin="round"/>
<g id="SVGRepo_iconCarrier"> <style type="text/css"> .st0{fill:#023047;} .st1{fill:none;stroke:#023047;stroke-width:32;stroke-linecap:round;stroke-linejoin:round;stroke-miterlimit:10;} </style> <g id="Layer_1"/> <g id="Layer_2"> <g> <path class="st0" d="M112.9,43.5v344.14L256,468.5l143.1-80.86V43.5H112.9z M340.55,211.58l-35.15,30.74 c-2.35,2.06-3.38,5.23-2.69,8.28l10.37,45.53c1.66,7.28-6.22,13.01-12.63,9.18l-40.09-23.94c-2.68-1.6-6.02-1.6-8.71,0 l-40.09,23.94c-6.41,3.83-14.29-1.89-12.63-9.18l10.37-45.53c0.69-3.04-0.34-6.22-2.69-8.28l-35.15-30.74 c-5.62-4.92-2.62-14.18,4.82-14.85l46.51-4.2c3.11-0.28,5.81-2.25,7.04-5.12l18.37-42.93c2.94-6.87,12.67-6.87,15.61,0 l18.37,42.93c1.23,2.87,3.93,4.84,7.04,5.12l46.51,4.2C343.16,197.41,346.17,206.67,340.55,211.58z"/> </g> </g> </g>
</svg>